<svg height="480pt" viewBox="0 -28 480.00513 480" width="480pt" xmlns="http://www.w3.org/2000/svg" xmlns:xlink="http://www.w3.org/1999/xlink"><linearGradient id="a"><stop offset="0" stop-color="#fec183"/><stop offset=".173" stop-color="#fea981"/><stop offset=".538" stop-color="#fe6b7b"/><stop offset="1" stop-color="#ff1572"/></linearGradient><linearGradient id="b" gradientUnits="userSpaceOnUse" x1="-8" x2="497.016" xlink:href="#a" y1="288.002565" y2="288.002565"/><linearGradient id="c" gradientUnits="userSpaceOnUse" x1="-8" x2="497.016" xlink:href="#a" y1="212.002565" y2="212.002565"/><path d="m208 280.003906h16v16h-16zm0 0" fill="url(#b)"/><path d="m176 280.003906h16v16h-16zm0 0" fill="url(#b)"/><path d="m112.886719 232.003906c-10.800781 10.503906-16.890625 24.933594-16.886719 40v16h-24c-4.417969 0-8 3.582032-8 8v24h-8c-4.417969 0-8 3.582032-8 8v32c0 4.417969 3.582031 8 8 8h88c0 30.925782 25.070312 56 56 56s56-25.074218 56-56h96c0 30.925782 25.070312 56 56 56s56-25.074218 56-56h8c2.4375 0 4.746094-1.109375 6.265625-3.019531s2.082031-4.40625 1.535156-6.78125l-45.746093-198.199219h21.945312c4.417969 0 8-3.582031 8-8v-64c0-4.417968-3.582031-8-8-8h-75.054688l-21.746093-43.578125c-1.359375-2.722656-4.152344-4.441406-7.199219-4.421875h-24.800781c-3.828125-18.613281-20.199219-31.9765622-39.199219-31.99999975-4.417969 0-8 3.58203175-8 7.99999975v64c0 4.417969 3.582031 8 8 8 19-.023437 35.371094-13.390625 39.199219-32h19.863281l20.9375 41.886719v6.113281h-56c-4.417969 0-8 3.582032-8 8v32c0 4.417969 3.582031 8 8 8h56v176h-64v-48c-.03125-27.8125-20.472656-51.386718-48-55.363281v-24.636719c0-4.417968-3.582031-8-8-8h-96c-4.417969 0-8 3.582032-8 8v24h-16v-48h8c4.417969 0 8-3.582031 8-8v-32c0-4.417968-3.582031-8-8-8h-8v-16h8c4.417969 0 8-3.582031 8-8v-32c0-4.417968-3.582031-8-8-8h-8v-24c0-4.417968-3.582031-8-8-8h-112c-4.417969 0-8 3.582032-8 8v32c0 4.417969 3.582031 8 8 8h8v16h-8c-4.417969 0-8 3.582032-8 8v32c0 4.417969 3.582031 8 8 8h8v16h-8c-4.417969 0-8 3.582032-8 8v72zm-16.886719 120h-32v-16h32zm0-32h-16v-16h16zm200-257.371094v-45.261718c9.597656 3.386718 16.011719 12.457031 16.011719 22.632812 0 10.175782-6.414063 19.246094-16.011719 22.628906zm136 33.371094h16v48h-16zm-5.910156 100.621094 9.910156 42.976562c-9.554688-1.542968-17.226562-8.71875-19.402344-18.152343-2.179687-9.433594 1.570313-19.246094 9.480469-24.824219zm-42.089844-100.621094h32v48h-32zm0 64h33.601562l4.6875 20.335938c-16.683593 8.132812-25.539062 26.710937-21.359374 44.792968 4.183593 18.082032 20.292968 30.882813 38.855468 30.871094l22.160156 96h-77.945312zm32 208c0 4.417969-3.582031 8-8 8s-8-3.582031-8-8zm-96-240v-16h48v16zm64 240c0 13.253906 10.746094 24 24 24s24-10.746094 24-24h16c0 22.089844-17.910156 40-40 40s-40-17.910156-40-40zm-80-32h64v16h-64zm-248-152c-4.417969 0-8-3.582031-8-8v-8h16v8c0 4.417969-3.582031 8-8 8zm8-48v8c.027344 2.730469.523438 5.4375 1.472656 8h-33.472656v-16zm-16-24v-8h16v8c0 4.417969-3.582031 8-8 8s-8-3.582031-8-8zm32 96c0 4.417969-3.582031 8-8 8s-8-3.582031-8-8v-8h16zm32 8h-17.472656c.949218-2.5625 1.445312-5.269531 1.472656-8v-8h16zm0-32h-33.472656c.949218-2.5625 1.445312-5.269531 1.472656-8v-8h32zm-33.472656-64c.824218-5.296875 1.316406-10.640625 1.472656-16h32v16zm17.472656 16v8c0 4.417969-3.582031 8-8 8s-8-3.582031-8-8v-8zm104 272c-22.082031-.027344-39.972656-17.921875-40-40h16c0 13.253906 10.746094 24 24 24s24-10.746094 24-24h16c-.027344 22.078125-17.917969 39.972656-40 40zm-8-40h16c0 4.417969-3.582031 8-8 8s-8-3.582031-8-8zm56-16h-96v-80c0-4.417968 3.582031-8 8-8h80c4.417969 0 8 3.582032 8 8zm-88-152h80v16h-80zm-8 32h96c22.082031.023438 39.972656 17.917969 40 40v80h-24v-80c0-13.257812-10.746094-24-24-24h-80c-13.253906 0-24 10.742188-24 24v80h-24v-80c.027344-22.082031 17.917969-39.976562 40-40zm-24-80h-17.472656c.949218-2.5625 1.445312-5.269531 1.472656-8v-8h16zm0-80v16h-17.472656c.949218-2.5625 1.445312-5.269531 1.472656-8v-8zm-32-24v-8h16v16h-17.472656c.949218-2.5625 1.445312-5.269531 1.472656-8zm0 24v8c0 4.417969-3.582031 8-8 8s-8-3.582031-8-8v-8zm-32-32h16v8c0 4.417969-3.582031 8-8 8s-8-3.582031-8-8zm0 32v8c.027344 2.730469.523438 5.4375 1.472656 8h-33.472656v-16zm-48-32h32v8c.027344 2.730469.523438 5.4375 1.472656 8h-33.472656zm0 64h16v8c.027344 2.730469.523438 5.4375 1.472656 8h-17.472656zm0 64h16v8c.027344 2.730469.523438 5.4375 1.472656 8h-17.472656zm0 32h32v8c.027344 2.730469.523438 5.4375 1.472656 8h-33.472656zm0 0" fill="url(#c)"/></svg>