<svg xmlns="http://www.w3.org/2000/svg" viewBox="0 0 504.115 504.115" style="enable-background:new 0 0 504.115 504.115" xml:space="preserve"><linearGradient id="a" gradientUnits="userSpaceOnUse" x1="-16.819" y1="556.311" x2="-14.362" y2="592.492" gradientTransform="matrix(7.8769 0 0 -7.8769 364.09 4969.635)"><stop offset="0" style="stop-color:#29d3da"/><stop offset=".519" style="stop-color:#07f"/><stop offset=".999" style="stop-color:#064093"/><stop offset="1" style="stop-color:#084698"/></linearGradient><path style="fill:url(#a)" d="M98.622 422.892c40.708 36.604 94.381 59.045 153.435 59.045 49.987 0 96.091-16.116 133.829-43.205L265.731 280.233c-62.047 56.336-125.708 110.774-167.109 142.659z"/><linearGradient id="b" gradientUnits="userSpaceOnUse" x1="-20.062" y1="562.642" x2="-21.705" y2="575.449" gradientTransform="matrix(7.8769 0 0 -7.8769 364.09 4969.635)"><stop offset="0" style="stop-color:#29d3da"/><stop offset=".519" style="stop-color:#07f"/><stop offset=".999" style="stop-color:#064093"/><stop offset="1" style="stop-color:#084698"/></linearGradient><path style="fill:url(#b)" d="M265.731 280.233c-62.047 56.328-125.708 110.765-167.109 142.651 40.708 36.604 94.381 59.045 153.435 59.045"/><linearGradient id="c" gradientUnits="userSpaceOnUse" x1="-63.962" y1="604.037" x2="-9.914" y2="591.303" gradientTransform="matrix(7.8769 0 0 -7.8769 364.09 4969.635)"><stop offset=".012" style="stop-color:#e0b386"/><stop offset=".519" style="stop-color:#da498c"/><stop offset="1" style="stop-color:#961484"/></linearGradient><path style="fill:url(#c)" d="M65.381 118.245C38.3 155.959 22.176 202.071 22.176 252.05c0 59.061 22.449 112.742 59.045 153.45 31.878-41.441 86.292-105.062 142.643-167.133L65.381 118.245z"/><linearGradient id="d" gradientUnits="userSpaceOnUse" x1="-45.353" y1="610.902" x2="-5.819" y2="581.419" gradientTransform="matrix(7.8769 0 0 -7.8769 364.09 4969.635)"><stop offset=".012" style="stop-color:#e0b386"/><stop offset=".519" style="stop-color:#da498c"/><stop offset="1" style="stop-color:#961484"/></linearGradient><path style="fill:url(#d)" d="M223.873 238.376 65.381 118.245C38.3 155.959 22.176 202.071 22.176 252.05"/><linearGradient id="e" gradientUnits="userSpaceOnUse" x1="18.477" y1="654.995" x2="-105.419" y2="531.101" gradientTransform="matrix(7.8769 0 0 -7.8769 364.09 4969.635)"><stop offset=".012" style="stop-color:#e0b386"/><stop offset=".519" style="stop-color:#da498c"/><stop offset="1" style="stop-color:#961484"/></linearGradient><path style="fill:url(#e)" d="M383.869 72.472c1.757-1.772 3.277-3.237 4.939-4.892-38.258-28.388-85.441-45.41-136.751-45.41-50.428 0-96.941 16.439-134.861 43.977l199.908 73.232c3.844-3.939 63-63.15 66.765-66.907z"/><linearGradient id="f" gradientUnits="userSpaceOnUse" x1="-16.271" y1="608.77" x2="-12.139" y2="634.792" gradientTransform="matrix(7.8769 0 0 -7.8769 364.09 4969.635)"><stop offset=".012" style="stop-color:#e0b386"/><stop offset=".519" style="stop-color:#da498c"/><stop offset="1" style="stop-color:#961484"/></linearGradient><path style="fill:url(#f)" d="M383.869 72.472c1.757-1.772 3.277-3.237 4.939-4.892-38.258-28.388-85.441-45.41-136.751-45.41-50.428 0-96.941 16.439-134.861 43.977"/><linearGradient id="g" gradientUnits="userSpaceOnUse" x1="41.856" y1="631.608" x2="-82.024" y2="507.722" gradientTransform="matrix(7.8769 0 0 -7.8769 364.09 4969.635)"><stop offset="0" style="stop-color:#29d3da"/><stop offset=".519" style="stop-color:#07f"/><stop offset=".999" style="stop-color:#064093"/><stop offset="1" style="stop-color:#084698"/></linearGradient><path style="fill:url(#g)" d="m364.736 187.018 73.232 199.877c27.538-37.904 43.969-84.409 43.969-134.845 0-51.31-17.014-98.525-45.418-136.775a897.04 897.04 0 0 1-4.892 4.955c-3.774 3.757-62.969 62.92-66.891 66.788z"/><linearGradient id="h" gradientUnits="userSpaceOnUse" x1="28.627" y1="600.161" x2="3.171" y2="598.678" gradientTransform="matrix(7.8769 0 0 -7.8769 364.09 4969.635)"><stop offset="0" style="stop-color:#29d3da"/><stop offset=".519" style="stop-color:#07f"/><stop offset=".999" style="stop-color:#064093"/><stop offset="1" style="stop-color:#084698"/></linearGradient><path style="fill:url(#h)" d="M437.967 386.895c27.538-37.904 43.969-84.409 43.969-134.845 0-51.31-17.014-98.525-45.418-136.775a897.04 897.04 0 0 1-4.892 4.955"/><linearGradient id="i" gradientUnits="userSpaceOnUse" x1="20.999" y1="634.131" x2="-60.436" y2="552.699" gradientTransform="matrix(7.8769 0 0 -7.8769 364.09 4969.635)"><stop offset=".012" style="stop-color:#e0b386"/><stop offset=".519" style="stop-color:#da498c"/><stop offset="1" style="stop-color:#961484"/></linearGradient><path style="fill:url(#i)" d="M81.222 405.5c-1.418 1.851-3.08 3.931-4.403 5.695L17.49 395.969a9.757 9.757 0 0 0-9.397 2.513l-5.199 5.238c-2.032 2.064-3.096 4.923-2.844 7.822.197 2.292 1.229 4.45 2.844 6.065.402.41.843.772 1.292 1.111l44.276 31.035c1.323.929 2.828 1.363 4.34 1.568.181 1.481.63 3.025 1.568 4.34l31.004 44.245c.386.488.709.89 1.15 1.315a9.881 9.881 0 0 0 6.065 2.859 9.846 9.846 0 0 0 7.798-2.859l5.23-5.191a9.727 9.727 0 0 0 2.536-9.397L92.95 427.311c1.757-1.331 3.828-2.985 5.679-4.419A229.424 229.424 0 0 1 81.222 405.5z"/><linearGradient id="j" gradientUnits="userSpaceOnUse" x1="-2.473" y1="657.631" x2="-83.933" y2="576.171" gradientTransform="matrix(7.8769 0 0 -7.8769 364.09 4969.635)"><stop offset=".012" style="stop-color:#e0b386"/><stop offset=".519" style="stop-color:#da498c"/><stop offset="1" style="stop-color:#961484"/></linearGradient><path style="fill:url(#j)" d="m117.195 66.147-64.52-23.639c-4.71-1.694-9.988-.559-13.54 3.001L19.506 65.138a13.017 13.017 0 0 0-3.742 9.972c.244 3.143 1.552 6.018 3.757 8.216.402.402.859.819 1.339 1.166l44.52 33.753c14.384-20.039 31.895-37.605 51.815-52.098z"/><linearGradient id="k" gradientUnits="userSpaceOnUse" x1="-38.711" y1="613.891" x2="-37.479" y2="624.722" gradientTransform="matrix(7.8769 0 0 -7.8769 364.09 4969.635)"><stop offset=".012" style="stop-color:#e0b386"/><stop offset=".519" style="stop-color:#da498c"/><stop offset="1" style="stop-color:#961484"/></linearGradient><path style="fill:url(#k)" d="M19.506 65.138a13.017 13.017 0 0 0-3.742 9.972c.244 3.143 1.552 6.018 3.757 8.216.402.402.859.819 1.339 1.166l44.52 33.753c14.383-20.039 31.894-37.597 51.814-52.09"/><linearGradient id="l" gradientUnits="userSpaceOnUse" x1="44.488" y1="610.654" x2="-36.954" y2="529.21" gradientTransform="matrix(7.8769 0 0 -7.8769 364.09 4969.635)"><stop offset="0" style="stop-color:#29d3da"/><stop offset=".519" style="stop-color:#07f"/><stop offset=".999" style="stop-color:#064093"/><stop offset="1" style="stop-color:#084698"/></linearGradient><path style="fill:url(#l)" d="m385.885 438.725 33.753 44.544c.339.457.725.89 1.15 1.315a12.805 12.805 0 0 0 8.184 3.742c3.726.252 7.373-1.103 9.988-3.726l19.629-19.637a12.82 12.82 0 0 0 3.001-13.525l-23.631-64.544a231.526 231.526 0 0 1-52.074 51.831z"/><linearGradient id="m" gradientUnits="userSpaceOnUse" x1="-2.756" y1="572.934" x2="11.656" y2="576.073" gradientTransform="matrix(7.8769 0 0 -7.8769 364.09 4969.635)"><stop offset="0" style="stop-color:#29d3da"/><stop offset=".519" style="stop-color:#07f"/><stop offset=".999" style="stop-color:#064093"/><stop offset="1" style="stop-color:#084698"/></linearGradient><path style="fill:url(#m)" d="m438.968 484.6 19.629-19.637a12.82 12.82 0 0 0 3.001-13.525l-23.631-64.544"/><linearGradient id="n" gradientUnits="userSpaceOnUse" x1="21.006" y1="634.143" x2="-60.432" y2="552.702" gradientTransform="matrix(7.8769 0 0 -7.8769 364.09 4969.635)"><stop offset="0" style="stop-color:#29d3da"/><stop offset=".519" style="stop-color:#07f"/><stop offset=".999" style="stop-color:#064093"/><stop offset="1" style="stop-color:#084698"/></linearGradient><path style="fill:url(#n)" d="M502.07 2.021c-2.907-2.938-9.523-2.828-20.047 1.363-4.198.922-8.988 3.23-14.171 7.026-27.065 15.281-18.204-3.159-79.045 57.179a231.089 231.089 0 0 1 47.711 47.695c60.337-60.833 41.921-51.956 57.202-79.029 3.757-5.191 6.073-9.98 6.971-14.194 4.23-10.509 4.317-17.094 1.379-20.04z"/><linearGradient id="o" gradientUnits="userSpaceOnUse" x1="-8.757" y1="608.179" x2="36.279" y2="641.751" gradientTransform="matrix(7.8769 0 0 -7.8769 364.09 4969.635)"><stop offset="0" style="stop-color:#29d3da"/><stop offset=".519" style="stop-color:#07f"/><stop offset=".999" style="stop-color:#064093"/><stop offset="1" style="stop-color:#084698"/></linearGradient><path style="fill:url(#o)" d="M388.808 67.58a231.089 231.089 0 0 1 47.711 47.695c60.337-60.833 41.921-51.956 57.202-79.029 3.757-5.191 6.073-9.98 6.971-14.194 4.23-10.5 4.324-17.085 1.386-20.031"/><linearGradient id="p" gradientUnits="userSpaceOnUse" x1="12.11" y1="614.937" x2="16.648" y2="641.441" gradientTransform="matrix(7.8769 0 0 -7.8769 364.09 4969.635)"><stop offset="0" style="stop-color:#29d3da"/><stop offset=".519" style="stop-color:#07f"/><stop offset=".999" style="stop-color:#064093"/><stop offset="1" style="stop-color:#084698"/></linearGradient><path style="fill:url(#p)" d="M436.518 115.275c60.337-60.833 41.921-51.956 57.202-79.029 3.757-5.191 6.073-9.98 6.971-14.194 4.23-10.5 4.324-17.085 1.386-20.031"/></svg>